<?xml version="1.0" encoding="utf-8" standalone="no"?>
<!DOCTYPE svg PUBLIC "-//W3C//DTD SVG 1.1//EN"
  "http://www.w3.org/Graphics/SVG/1.1/DTD/svg11.dtd">
<svg xmlns:xlink="http://www.w3.org/1999/xlink" width="1000.8pt" height="194.4pt" viewBox="0 0 1000.8 194.4" xmlns="http://www.w3.org/2000/svg" version="1.1">
 <metadata>
  <rdf:RDF xmlns:dc="http://purl.org/dc/elements/1.1/" xmlns:cc="http://creativecommons.org/ns#" xmlns:rdf="http://www.w3.org/1999/02/22-rdf-syntax-ns#">
   <cc:Work>
    <dc:type rdf:resource="http://purl.org/dc/dcmitype/StillImage"/>
    <dc:date>2026-06-16T20:23:34.860566</dc:date>
    <dc:format>image/svg+xml</dc:format>
    <dc:creator>
     <cc:Agent>
      <dc:title>Matplotlib v3.11.0, https://matplotlib.org/</dc:title>
     </cc:Agent>
    </dc:creator>
   </cc:Work>
  </rdf:RDF>
 </metadata>
 <defs>
  <style type="text/css">*{stroke-linejoin: round; stroke-linecap: butt}</style>
 </defs>
 <g id="figure_1">
  <g id="patch_1">
   <path d="M 0 194.4 
L 1000.8 194.4 
L 1000.8 0 
L 0 0 
z
" style="fill: #ffffff"/>
  </g>
  <g id="axes_1">
   <g id="patch_2">
    <path d="M 12.132 120.6 
L 81.18 120.6 
L 81.18 77.4 
L 12.132 77.4 
L 12.132 120.6 
z
" clip-path="url(#pac9f38ceb4)" style="fill: none; stroke: #000000; stroke-width: 1.5; stroke-linejoin: miter"/>
   </g>
   <g id="patch_3">
    <path d="M 94.630909 120.6 
L 163.678909 120.6 
L 163.678909 77.4 
L 94.630909 77.4 
L 94.630909 120.6 
z
" clip-path="url(#pac9f38ceb4)" style="fill: none; stroke: #000000; stroke-width: 1.5; stroke-linejoin: miter"/>
   </g>
   <g id="patch_4">
    <path d="M 177.129818 120.6 
L 246.177818 120.6 
L 246.177818 77.4 
L 177.129818 77.4 
L 177.129818 120.6 
z
" clip-path="url(#pac9f38ceb4)" style="fill: none; stroke: #000000; stroke-width: 1.5; stroke-linejoin: miter"/>
   </g>
   <g id="patch_5">
    <path d="M 259.628727 120.6 
L 328.676727 120.6 
L 328.676727 77.4 
L 259.628727 77.4 
L 259.628727 120.6 
z
" clip-path="url(#pac9f38ceb4)" style="fill: none; stroke: #000000; stroke-width: 1.5; stroke-linejoin: miter"/>
   </g>
   <g id="patch_6">
    <path d="M 342.127636 120.6 
L 411.175636 120.6 
L 411.175636 77.4 
L 342.127636 77.4 
L 342.127636 120.6 
z
" clip-path="url(#pac9f38ceb4)" style="fill: none; stroke: #000000; stroke-width: 1.5; stroke-linejoin: miter"/>
   </g>
   <g id="patch_7">
    <path d="M 424.626545 120.6 
L 493.674545 120.6 
L 493.674545 77.4 
L 424.626545 77.4 
L 424.626545 120.6 
z
" clip-path="url(#pac9f38ceb4)" style="fill: none; stroke: #000000; stroke-width: 1.5; stroke-linejoin: miter"/>
   </g>
   <g id="patch_8">
    <path d="M 507.125455 120.6 
L 576.173455 120.6 
L 576.173455 77.4 
L 507.125455 77.4 
L 507.125455 120.6 
z
" clip-path="url(#pac9f38ceb4)" style="fill: none; stroke: #000000; stroke-width: 1.5; stroke-linejoin: miter"/>
   </g>
   <g id="patch_9">
    <path d="M 589.624364 120.6 
L 658.672364 120.6 
L 658.672364 77.4 
L 589.624364 77.4 
L 589.624364 120.6 
z
" clip-path="url(#pac9f38ceb4)" style="fill: none; stroke: #000000; stroke-width: 1.5; stroke-linejoin: miter"/>
   </g>
   <g id="patch_10">
    <path d="M 672.123273 120.6 
L 741.171273 120.6 
L 741.171273 77.4 
L 672.123273 77.4 
L 672.123273 120.6 
z
" clip-path="url(#pac9f38ceb4)" style="fill: none; stroke: #000000; stroke-width: 1.5; stroke-linejoin: miter"/>
   </g>
   <g id="patch_11">
    <path d="M 754.622182 120.6 
L 823.670182 120.6 
L 823.670182 77.4 
L 754.622182 77.4 
L 754.622182 120.6 
z
" clip-path="url(#pac9f38ceb4)" style="fill: none; stroke: #000000; stroke-width: 1.5; stroke-linejoin: miter"/>
   </g>
   <g id="patch_12">
    <path d="M 837.121091 120.6 
L 906.169091 120.6 
L 906.169091 77.4 
L 837.121091 77.4 
L 837.121091 120.6 
z
" clip-path="url(#pac9f38ceb4)" style="fill: none; stroke: #000000; stroke-width: 1.5; stroke-linejoin: miter"/>
   </g>
   <g id="patch_13">
    <path d="M 919.62 120.6 
L 988.668 120.6 
L 988.668 77.4 
L 919.62 77.4 
L 919.62 120.6 
z
" clip-path="url(#pac9f38ceb4)" style="fill: none; stroke: #000000; stroke-width: 1.5; stroke-linejoin: miter"/>
   </g>
   <g id="text_1">
    <text style="font-size: 9px; font-family: 'Arial', 'Liberation Sans', 'DejaVu Sans', 'Bitstream Vera Sans', sans-serif; text-anchor: middle; fill: #262626" x="46.656" y="101.329102" transform="rotate(-0 46.656 101.329102)">Bits</text>
   </g>
   <g id="text_2">
    <text style="font-size: 9px; font-family: 'Arial', 'Liberation Sans', 'DejaVu Sans', 'Bitstream Vera Sans', sans-serif; text-anchor: middle; fill: #262626" x="129.154909" y="101.33165" transform="rotate(-0 129.154909 101.33165)">QPSK/16QAM</text>
   </g>
   <g id="text_3">
    <text style="font-size: 9px; font-family: 'Arial', 'Liberation Sans', 'DejaVu Sans', 'Bitstream Vera Sans', sans-serif; text-anchor: middle; fill: #262626" x="211.653818" y="101.329102" transform="rotate(-0 211.653818 101.329102)">S/P</text>
   </g>
   <g id="text_4">
    <text style="font-size: 9px; font-family: 'Arial', 'Liberation Sans', 'DejaVu Sans', 'Bitstream Vera Sans', sans-serif; text-anchor: middle; fill: #262626" x="294.152727" y="101.329102" transform="rotate(-0 294.152727 101.329102)">Pilot Insert</text>
   </g>
   <g id="text_5">
    <text style="font-size: 9px; font-family: 'Arial', 'Liberation Sans', 'DejaVu Sans', 'Bitstream Vera Sans', sans-serif; text-anchor: middle; fill: #262626" x="376.651636" y="101.329102" transform="rotate(-0 376.651636 101.329102)">IFFT</text>
   </g>
   <g id="text_6">
    <text style="font-size: 9px; font-family: 'Arial', 'Liberation Sans', 'DejaVu Sans', 'Bitstream Vera Sans', sans-serif; text-anchor: middle; fill: #262626" x="459.150545" y="101.329102" transform="rotate(-0 459.150545 101.329102)">Add CP</text>
   </g>
   <g id="text_7">
    <text style="font-size: 9px; font-family: 'Arial', 'Liberation Sans', 'DejaVu Sans', 'Bitstream Vera Sans', sans-serif; text-anchor: middle; fill: #262626" x="541.649455" y="101.329102" transform="rotate(-0 541.649455 101.329102)">Channel</text>
   </g>
   <g id="text_8">
    <text style="font-size: 9px; font-family: 'Arial', 'Liberation Sans', 'DejaVu Sans', 'Bitstream Vera Sans', sans-serif; text-anchor: middle; fill: #262626" x="624.148364" y="101.329102" transform="rotate(-0 624.148364 101.329102)">Remove CP</text>
   </g>
   <g id="text_9">
    <text style="font-size: 9px; font-family: 'Arial', 'Liberation Sans', 'DejaVu Sans', 'Bitstream Vera Sans', sans-serif; text-anchor: middle; fill: #262626" x="706.647273" y="101.329102" transform="rotate(-0 706.647273 101.329102)">FFT</text>
   </g>
   <g id="text_10">
    <text style="font-size: 9px; font-family: 'Arial', 'Liberation Sans', 'DejaVu Sans', 'Bitstream Vera Sans', sans-serif; text-anchor: middle; fill: #262626" x="789.146182" y="101.329102" transform="rotate(-0 789.146182 101.329102)">Channel Est.</text>
   </g>
   <g id="text_11">
    <text style="font-size: 9px; font-family: 'Arial', 'Liberation Sans', 'DejaVu Sans', 'Bitstream Vera Sans', sans-serif; text-anchor: middle; fill: #262626" x="871.645091" y="101.329102" transform="rotate(-0 871.645091 101.329102)">Equalizer</text>
   </g>
   <g id="text_12">
    <text style="font-size: 9px; font-family: 'Arial', 'Liberation Sans', 'DejaVu Sans', 'Bitstream Vera Sans', sans-serif; text-anchor: middle; fill: #262626" x="954.144" y="101.329102" transform="rotate(-0 954.144 101.329102)">BER</text>
   </g>
   <g id="patch_14">
    <path d="M 88.112122 99 
Q 88.905516 99 88.357268 99 
" style="fill: none; stroke: #000000; stroke-width: 1.2; stroke-linecap: round"/>
    <path d="M 84.357268 97 
L 88.357268 99 
L 84.357268 101 
" style="fill: none; stroke: #000000; stroke-width: 1.2; stroke-linecap: round"/>
   </g>
   <g id="patch_15">
    <path d="M 170.611031 99 
Q 171.404425 99 170.856177 99 
" style="fill: none; stroke: #000000; stroke-width: 1.2; stroke-linecap: round"/>
    <path d="M 166.856177 97 
L 170.856177 99 
L 166.856177 101 
" style="fill: none; stroke: #000000; stroke-width: 1.2; stroke-linecap: round"/>
   </g>
   <g id="patch_16">
    <path d="M 253.10994 99 
Q 253.903334 99 253.355086 99 
" style="fill: none; stroke: #000000; stroke-width: 1.2; stroke-linecap: round"/>
    <path d="M 249.355086 97 
L 253.355086 99 
L 249.355086 101 
" style="fill: none; stroke: #000000; stroke-width: 1.2; stroke-linecap: round"/>
   </g>
   <g id="patch_17">
    <path d="M 335.608849 99 
Q 336.402243 99 335.853996 99 
" style="fill: none; stroke: #000000; stroke-width: 1.2; stroke-linecap: round"/>
    <path d="M 331.853996 97 
L 335.853996 99 
L 331.853996 101 
" style="fill: none; stroke: #000000; stroke-width: 1.2; stroke-linecap: round"/>
   </g>
   <g id="patch_18">
    <path d="M 418.107759 99 
Q 418.901152 99 418.352905 99 
" style="fill: none; stroke: #000000; stroke-width: 1.2; stroke-linecap: round"/>
    <path d="M 414.352905 97 
L 418.352905 99 
L 414.352905 101 
" style="fill: none; stroke: #000000; stroke-width: 1.2; stroke-linecap: round"/>
   </g>
   <g id="patch_19">
    <path d="M 500.606668 99 
Q 501.400061 99 500.851814 99 
" style="fill: none; stroke: #000000; stroke-width: 1.2; stroke-linecap: round"/>
    <path d="M 496.851814 97 
L 500.851814 99 
L 496.851814 101 
" style="fill: none; stroke: #000000; stroke-width: 1.2; stroke-linecap: round"/>
   </g>
   <g id="patch_20">
    <path d="M 583.105577 99 
Q 583.89897 99 583.350723 99 
" style="fill: none; stroke: #000000; stroke-width: 1.2; stroke-linecap: round"/>
    <path d="M 579.350723 97 
L 583.350723 99 
L 579.350723 101 
" style="fill: none; stroke: #000000; stroke-width: 1.2; stroke-linecap: round"/>
   </g>
   <g id="patch_21">
    <path d="M 665.604486 99 
Q 666.397879 99 665.849632 99 
" style="fill: none; stroke: #000000; stroke-width: 1.2; stroke-linecap: round"/>
    <path d="M 661.849632 97 
L 665.849632 99 
L 661.849632 101 
" style="fill: none; stroke: #000000; stroke-width: 1.2; stroke-linecap: round"/>
   </g>
   <g id="patch_22">
    <path d="M 748.103395 99 
Q 748.896788 99 748.348541 99 
" style="fill: none; stroke: #000000; stroke-width: 1.2; stroke-linecap: round"/>
    <path d="M 744.348541 97 
L 748.348541 99 
L 744.348541 101 
" style="fill: none; stroke: #000000; stroke-width: 1.2; stroke-linecap: round"/>
   </g>
   <g id="patch_23">
    <path d="M 830.602304 99 
Q 831.395697 99 830.84745 99 
" style="fill: none; stroke: #000000; stroke-width: 1.2; stroke-linecap: round"/>
    <path d="M 826.84745 97 
L 830.84745 99 
L 826.84745 101 
" style="fill: none; stroke: #000000; stroke-width: 1.2; stroke-linecap: round"/>
   </g>
   <g id="patch_24">
    <path d="M 913.101213 99 
Q 913.894607 99 913.346359 99 
" style="fill: none; stroke: #000000; stroke-width: 1.2; stroke-linecap: round"/>
    <path d="M 909.346359 97 
L 913.346359 99 
L 909.346359 101 
" style="fill: none; stroke: #000000; stroke-width: 1.2; stroke-linecap: round"/>
   </g>
  </g>
 </g>
 <defs>
  <clipPath id="pac9f38ceb4">
   <rect x="7.2" y="7.2" width="986.4" height="180"/>
  </clipPath>
 </defs>
</svg>
